<?xml version="1.0" encoding="utf-8"?>
<!-- Generator: Adobe Illustrator 21.0.0, SVG Export Plug-In . SVG Version: 6.00 Build 0)  -->
<svg version="1.1" id="Layer_1" xmlns="http://www.w3.org/2000/svg" xmlns:xlink="http://www.w3.org/1999/xlink" x="0px" y="0px"
	 viewBox="0 0 142.5 80.5" style="enable-background:new 0 0 142.5 80.5;" xml:space="preserve">
<style type="text/css">
	.Arched_x0020_Green{fill:url(#SVGID_1_);stroke:#FFFFFF;stroke-width:0.25;stroke-miterlimit:1;}
	.st0{fill:#205392;}
</style>
<linearGradient id="SVGID_1_" gradientUnits="userSpaceOnUse" x1="-13.5" y1="152.75" x2="-12.7929" y2="152.0429">
	<stop  offset="0" style="stop-color:#20AC4B"/>
	<stop  offset="0.9831" style="stop-color:#19361A"/>
</linearGradient>
<g>
	<g>
		<path class="st0" d="M91.8,53.6h2.8c0.9,0,1.3,0.1,1.8,0.5c0.4,0.4,0.6,0.8,0.6,1.3c0,0.5-0.2,0.9-0.5,1.2
			c-0.2,0.2-0.3,0.3-0.7,0.4c1,0.3,1.4,0.9,1.4,1.8c0,1-0.6,1.9-1.9,2c-0.2,0-0.5,0-0.9,0h-2.6V53.6z M93.2,54.9v1.7h1.2
			c0.3,0,0.5,0,0.6-0.1c0.2-0.1,0.4-0.5,0.4-0.8c0-0.3-0.2-0.6-0.4-0.7c-0.1-0.1-0.3-0.1-0.6-0.1H93.2z M93.3,57.8v2h1.3
			c0.3,0,0.5-0.1,0.7-0.2c0.2-0.2,0.4-0.5,0.4-0.8c0-0.4-0.2-0.8-0.5-0.9c-0.2-0.1-0.2-0.1-0.6-0.1H93.3z"/>
		<path class="st0" d="M104.7,55.7v0.5c0.2-0.3,0.4-0.5,0.7-0.6c0.1-0.1,0.3-0.1,0.5-0.1c0.2,0,0.3,0,0.5,0.1l-0.3,1.2
			c-0.1-0.1-0.3-0.1-0.4-0.1c-0.3,0-0.6,0.1-0.9,0.4v3.8h-1.4v-5.2H104.7z"/>
		<path class="st0" d="M110.6,59.5l0.5,0.8c-0.6,0.5-1.3,0.7-2,0.7c-1.5,0-2.5-1.1-2.5-2.8c0-1,0.2-1.6,0.7-2.1
			c0.4-0.5,1-0.7,1.7-0.7c0.6,0,1.2,0.2,1.5,0.6c0.5,0.5,0.7,1.2,0.7,2.3c0,0.1,0,0.2,0,0.3h-3.1v0c0,0.8,0.4,1.3,1.1,1.3
			C109.8,60,110.2,59.9,110.6,59.5z M108.2,57.7h1.6v-0.1c0-0.4,0-0.6-0.2-0.8c-0.1-0.2-0.3-0.3-0.6-0.3
			C108.5,56.5,108.2,56.9,108.2,57.7L108.2,57.7z"/>
		<path class="st0" d="M115.2,60.9v-0.4c-0.2,0.2-0.2,0.2-0.3,0.3c-0.3,0.2-0.6,0.3-1.1,0.3c-1.2,0-1.8-0.6-1.8-1.7
			c0-1.3,0.9-1.8,2.6-1.8c0.1,0,0.2,0,0.3,0v-0.2c0-0.6-0.1-0.8-0.6-0.8c-0.4,0-1,0.2-1.5,0.6l-0.6-1c0.3-0.2,0.5-0.3,0.9-0.4
			c0.5-0.2,1-0.3,1.5-0.3c0.9,0,1.5,0.3,1.7,0.9c0.1,0.2,0.1,0.4,0.1,1l0,1.8c0,0,0,0.1,0,0.1v1.7L115.2,60.9z M114.8,58.6
			L114.8,58.6c-1,0-1.4,0.2-1.4,0.8c0,0.4,0.3,0.7,0.6,0.7c0.3,0,0.5-0.1,0.7-0.4L114.8,58.6z"/>
		<path class="st0" d="M120.3,60.9v-0.4c-0.3,0.3-0.8,0.5-1.4,0.5c-0.8,0-1.4-0.4-1.6-0.9c-0.1-0.2-0.1-0.5-0.1-1.1v-3.4h1.4v3.2
			c0,0.5,0,0.7,0.1,0.9c0.1,0.1,0.3,0.3,0.5,0.3c0.3,0,0.8-0.3,0.9-0.5v-3.8h1.3v5.2H120.3z"/>
	</g>
	<path class="st0" d="M35.4,31.1c-1.3-0.9-2.8-1.4-4.2-1.4c-1.8,0-3.6,0.8-4.5,2.1c-1,1.4-1.5,3.5-1.5,6.4c0,3.4,0.3,5.3,1.1,6.6
		c1.1,1.8,2.8,2.8,5.1,2.8c1.5,0,2.7-0.4,4-1.2c0.2-0.1,0.3-0.2,0.5-0.4l2.1,3.4c-2,1.4-4.2,2.1-7.1,2.1c-3.7,0-6.5-1.1-8.7-3.4
		c-2.1-2.2-3.2-5.2-3.2-8.9c0-3.1,0.6-5.6,1.8-7.7c2.1-3.6,5.9-5.7,10.2-5.7c2.4,0,4.9,0.7,6.4,1.7L35.4,31.1z"/>
	<path class="st0" d="M52.6,46.1l1.8,2.8c-2.1,1.7-4.3,2.5-6.8,2.5c-5.2,0-8.5-3.7-8.5-9.4c0-3.2,0.7-5.4,2.3-7.2
		c1.5-1.7,3.3-2.4,5.7-2.4c2.1,0,4.1,0.7,5.2,1.9c1.7,1.7,2.4,4.1,2.4,7.9c0,0.4,0,0.5,0,1.1H44.2v0.1c0,2.8,1.4,4.4,3.8,4.4
		C49.7,47.9,51.2,47.3,52.6,46.1z M44.3,39.9h5.5v-0.2c0-1.3-0.1-2-0.6-2.7c-0.5-0.7-1.1-1.1-2.1-1.1C45.3,35.9,44.3,37.3,44.3,39.9
		L44.3,39.9z"/>
	<path class="st0" d="M61.2,32.6l0.5,2c1.1-0.8,1.3-0.9,2.1-1.3c1-0.5,2.2-0.8,3.3-0.8c2,0,3.8,1.1,4.3,2.6c0.2,0.7,0.4,1.4,0.4,2.6
		v13.2H67V39.1c0-2-0.4-2.6-1.6-2.6c-1,0-2.2,0.6-3.3,1.6v12.8h-4.7V32.6H61.2z"/>
	<path class="st0" d="M61.6,32.6l0,2c1.1-0.8,1.3-0.9,2.1-1.3c1-0.5,2.2-0.8,3.3-0.8c2,0,3.8,1.1,4.3,2.6c0.2,0.7,0.4,1.4,0.4,2.6
		v13.2H67V39.1c0-2-0.4-2.6-1.6-2.6c-1,0-2.2,0.6-3.3,1.6v12.8h-4.7V32.6H61.6z"/>
	<path class="st0" d="M86.4,37.1c-1.8-0.9-3.1-1.3-4.5-1.3c-1.4,0-2.3,0.7-2.3,1.8c0,0.9,0.6,1.4,2.3,1.8l2.2,0.6
		c2.2,0.6,3,1.2,3.6,2c0.7,0.8,1,1.9,1,3.1c0,3.7-3.1,6.3-7.7,6.3c-2.2,0-4.5-0.7-7.1-2l1.5-3.6c1.4,0.9,4,2,6,2
		c1.3,0,2.4-0.9,2.4-2c0-1.2-0.9-1.9-2.8-2.2l-2.1-0.4c-1.2-0.2-2.7-1.1-3.3-1.8c-0.6-0.8-1-2.1-1-3.2c0-3.5,2.8-5.9,7-5.9
		c2.7,0,4.6,0.8,6.2,1.6L86.4,37.1z"/>
	<path class="st0" d="M101.3,50.9l0-2c-1.1,0.8-1.3,0.9-2.1,1.3C98.3,50.7,97,51,96,51c-2,0-3.8-1.1-4.3-2.6
		c-0.2-0.7-0.4-1.4-0.4-2.6V32.6h4.7v11.8c0,2.1,0.4,2.7,1.6,2.7c1,0,2.2-0.6,3.3-1.6V32.6h4.7v18.3H101.3z"/>
	<g>
		<path class="st0" d="M48.2,20.7v4.8c0,2.6-1.3,4.1-3.6,4.1c-2.3,0-3.5-1.5-3.5-4.1v-4.7H40v-1.2h3.6v1.2h-1.1v4.9
			c0,1.7,0.7,2.6,2.1,2.6c1.4,0,2.1-0.9,2.1-2.5v-5h-1.1v-1.2h3.6v1.2H48.2"/>
	</g>
	<g>
		<path class="st0" d="M54,29.3v-1.2h0.9v-3.4c0-1.4-0.5-1.8-1.2-1.8c-0.7,0-1.2,0.4-1.6,0.9v4.3h0.9v1.2h-3.2v-1.2h0.9v-5.1h-0.9
			v-1.2H52v0.8c0.5-0.6,1.1-0.9,2-0.9c1.5,0,2.3,0.8,2.3,2.9v3.5h0.9v1.2H54"/>
	</g>
	<g>
		<path class="st0" d="M59.5,20.6c-0.5,0-1-0.4-1-0.9c0-0.5,0.4-1,1-1c0.5,0,0.9,0.4,0.9,1C60.5,20.2,60,20.6,59.5,20.6 M58,29.3
			v-1.2h0.9v-5.1H58v-1.2h2.4v6.3h0.9v1.2H58z"/>
	</g>
	<g>
		<path class="st0" d="M65.9,29.1c-0.3,0.2-0.8,0.3-1.4,0.3c-1,0-1.6-0.6-1.6-2v-4.4h-1v-1.2h1v-2.1l1.5-0.8v2.9H66v1.2h-1.7v4.3
			c0,0.7,0.2,0.9,0.7,0.9c0.2,0,0.3,0,0.4-0.1L65.9,29.1z"/>
	</g>
	<g>
		<path class="st0" d="M72.8,26.1h-4.6c0.1,1.3,0.7,2.1,1.8,2.1c0.8,0,1.3-0.2,2-0.7l0.6,1c-0.8,0.7-1.6,1-2.7,1
			c-1.8,0-3.2-1.4-3.2-3.9c0-2.5,1.3-3.9,3.1-3.9c2,0,3,1.7,3,3.7C72.8,25.7,72.8,26,72.8,26.1 M69.7,22.9c-1,0-1.5,0.7-1.6,2h3.2
			C71.3,23.9,70.9,22.9,69.7,22.9"/>
	</g>
	<g>
		<path class="st0" d="M78.4,29.3v-0.8c-0.5,0.6-1,0.9-1.8,0.9c-1.6,0-2.7-1.2-2.7-4c0-2.5,1.2-3.8,2.6-3.8c0.9,0,1.4,0.4,1.9,0.9
			V20h-0.9v-1.2h2.3v9.3h0.8v1.2H78.4 M78.4,23.9c-0.3-0.4-0.9-1-1.6-1c-1,0-1.5,0.8-1.5,2.5c0,2.1,0.6,2.8,1.6,2.8
			c0.6,0,1-0.3,1.6-0.9V23.9z"/>
	</g>
	<g>
		<path class="st0" d="M88.7,29.5c-1,0-1.7-0.4-2.2-1v0.8h-1.3v-3h1.2c0.4,1.2,1,1.9,2.2,1.9c1.1,0,1.7-0.5,1.7-1.5
			c0-0.9-0.3-1.3-2.1-1.8c-2-0.6-2.9-1.2-2.9-3c0-1.7,1.1-2.7,2.8-2.7c1.1,0,1.8,0.5,2.1,1v-0.8h1.3v3h-1.2
			c-0.2-1.2-0.8-1.9-2.1-1.9c-1,0-1.4,0.5-1.4,1.3c0,0.8,0.5,1.3,2,1.7c2,0.6,3,1.3,3,3C91.9,28.5,90.6,29.5,88.7,29.5"/>
	</g>
	<g>
		<path class="st0" d="M101.9,29.3v-0.8c-0.5,0.6-1.1,1-2,1c-1.3,0-2.4-0.7-2.4-2.5c0-1.7,1.2-2.4,2.7-2.4c0.7,0,1.2,0.1,1.6,0.4
			v-0.7c0-0.8-0.5-1.3-1.3-1.3c-0.7,0-1.3,0.1-1.8,0.5l-0.5-1c0.7-0.4,1.5-0.7,2.5-0.7c1.6,0,2.7,0.8,2.7,2.5v3.9h0.8v1.2H101.9
			 M101.9,26.1c-0.4-0.2-0.8-0.3-1.6-0.3c-0.8,0-1.4,0.5-1.4,1.2c0,0.9,0.4,1.3,1.3,1.3c0.7,0,1.3-0.4,1.7-0.9V26.1z"/>
	</g>
	<g>
		<path class="st0" d="M115.4,26.1h-4.6c0.1,1.3,0.7,2.1,1.8,2.1c0.8,0,1.3-0.2,2-0.7l0.6,1c-0.8,0.7-1.6,1-2.7,1
			c-1.8,0-3.2-1.4-3.2-3.9c0-2.5,1.3-3.9,3.1-3.9c2,0,3,1.7,3,3.7C115.4,25.7,115.4,26,115.4,26.1 M112.4,22.9c-1,0-1.5,0.7-1.6,2
			h3.2C113.9,23.9,113.5,22.9,112.4,22.9"/>
	</g>
	<g>
		<path class="st0" d="M119.5,29.4c-0.9,0-1.3-0.2-1.7-0.7v0.6h-1.1V27h1c0.4,0.8,0.9,1.3,1.8,1.3c0.6,0,0.9-0.4,0.9-0.9
			c0-0.5-0.2-0.9-1.3-1.2c-1.8-0.5-2.4-1.1-2.4-2.4c0-1.1,0.8-2.1,2.3-2.1c0.7,0,1.2,0.2,1.6,0.6v-0.5h1.1v2.3h-1
			c-0.3-0.8-0.8-1.3-1.6-1.3c-0.6,0-0.9,0.3-0.9,0.8c0,0.4,0.2,0.8,1.3,1.1c1.7,0.5,2.4,1,2.4,2.4C121.8,28.5,120.9,29.4,119.5,29.4
			"/>
	</g>
	<path class="st0" d="M101.2,60.9v-0.4c-0.3,0.3-0.8,0.5-1.4,0.5c-0.8,0-1.4-0.4-1.6-0.9c-0.1-0.2-0.1-0.5-0.1-1.1v-3.4h1.4v3.2
		c0,0.5,0,0.7,0.1,0.9c0.1,0.1,0.3,0.3,0.5,0.3c0.3,0,0.8-0.3,0.9-0.5v-3.8h1.3v5.2H101.2z"/>
	<path class="st0" d="M120.3,37.1c-1.8-0.9-3.1-1.3-4.5-1.3c-1.4,0-2.3,0.7-2.3,1.8c0,0.9,0.6,1.4,2.3,1.8L118,40
		c2.2,0.6,3,1.2,3.6,2c0.7,0.8,1,1.9,1,3.1c0,3.7-3.1,6.3-7.7,6.3c-2.2,0-4.5-0.7-7.1-2l1.5-3.6c1.4,0.9,4,2,6,2
		c1.3,0,2.4-0.9,2.4-2c0-1.2-0.9-1.9-2.8-2.2l-2.1-0.4c-1.2-0.2-2.7-1.1-3.3-1.8c-0.6-0.8-1-2.1-1-3.2c0-3.5,2.8-5.9,7-5.9
		c2.7,0,4.6,0.8,6.2,1.6L120.3,37.1z"/>
	<g>
		<path class="st0" d="M21.8,56.1h64.4c1.3,0,2.4,1.1,2.4,2.4c0,1.3-1.1,2.4-2.4,2.4H21.8c-1.3,0-2.4-1.1-2.4-2.4
			C19.4,57.1,20.5,56.1,21.8,56.1L21.8,56.1z"/>
	</g>
	<path class="st0" d="M96.7,29.1c-0.3,0.2-0.8,0.3-1.4,0.3c-1,0-1.6-0.6-1.6-2v-4.4h-1v-1.2h1v-2.1l1.5-0.8v2.9h1.7v1.2h-1.7v4.3
		c0,0.7,0.2,0.9,0.7,0.9c0.2,0,0.3,0,0.4-0.1L96.7,29.1z"/>
	<path class="st0" d="M108.5,29.1c-0.3,0.2-0.8,0.3-1.4,0.3c-1,0-1.6-0.6-1.6-2v-4.4h-1v-1.2h1v-2.1L107,19v2.9h1.7v1.2H107v4.3
		c0,0.7,0.2,0.9,0.7,0.9c0.2,0,0.3,0,0.4-0.1L108.5,29.1z"/>
</g>
<g>
	<path class="st0" d="M125.2,20.2c0.4,0,0.7,0.1,1,0.3s0.6,0.4,0.8,0.8c0.2,0.3,0.3,0.7,0.3,1.1c0,0.6-0.2,1.1-0.6,1.5
		c-0.4,0.4-0.9,0.6-1.5,0.6c-0.6,0-1.1-0.2-1.5-0.6c-0.4-0.4-0.6-0.9-0.6-1.5c0-0.4,0.1-0.7,0.3-1.1c0.2-0.3,0.5-0.6,0.8-0.8
		S124.8,20.2,125.2,20.2z M125.2,20.6c-0.3,0-0.6,0.1-0.9,0.2c-0.3,0.2-0.5,0.4-0.7,0.7s-0.2,0.6-0.2,0.9c0,0.5,0.2,0.9,0.5,1.3
		c0.3,0.4,0.8,0.5,1.3,0.5c0.5,0,0.9-0.2,1.3-0.5c0.3-0.4,0.5-0.8,0.5-1.3c0-0.5-0.2-0.9-0.5-1.3C126.1,20.7,125.7,20.6,125.2,20.6z
		 M124.2,23.5v-2.3h0.8c0.2,0,0.4,0,0.5,0s0.2,0.1,0.3,0.2c0.1,0.1,0.1,0.2,0.1,0.4c0,0.2-0.1,0.3-0.2,0.4c-0.1,0.1-0.3,0.2-0.5,0.2
		c0.1,0,0.3,0.2,0.5,0.6l0.3,0.4h-0.5l-0.2-0.4c-0.2-0.3-0.3-0.4-0.4-0.5c-0.1-0.1-0.2-0.1-0.3-0.1h-0.2v1H124.2z M124.6,22.2h0.5
		c0.4,0,0.6-0.1,0.6-0.4c0-0.1,0-0.2-0.1-0.3c-0.1-0.1-0.2-0.1-0.5-0.1h-0.4V22.2z"/>
</g>
</svg>
